<?xml version="1.0" encoding="utf-8"?>
<!-- Generator: Adobe Illustrator 23.0.3, SVG Export Plug-In . SVG Version: 6.00 Build 0)  -->
<svg version="1.1" id="Layer_1" xmlns="http://www.w3.org/2000/svg" xmlns:xlink="http://www.w3.org/1999/xlink" x="0px" y="0px"
	 viewBox="0 0 512 512" style="enable-background:new 0 0 512 512;" xml:space="preserve">
<style type="text/css">
	.st0{fill:url(#SVGID_1_);}
	.st1{fill:url(#SVGID_2_);}
	.st2{fill:url(#SVGID_3_);}
	.st3{fill:url(#SVGID_4_);}
	.st4{fill:url(#SVGID_5_);}
	.st5{fill:url(#SVGID_6_);}
	.st6{fill:url(#SVGID_7_);}
	.st7{fill:url(#SVGID_8_);}
	.st8{fill:url(#SVGID_9_);}
	.st9{fill:url(#SVGID_10_);}
	.st10{fill:url(#SVGID_11_);}
	.st11{fill:url(#SVGID_12_);}
	.st12{fill:url(#SVGID_13_);}
	.st13{fill:url(#SVGID_14_);}
	.st14{fill:url(#SVGID_15_);}
	.st15{fill:url(#SVGID_16_);}
	.st16{fill:url(#SVGID_17_);}
	.st17{fill:url(#SVGID_18_);}
	.st18{fill:url(#SVGID_19_);}
	.st19{fill:url(#SVGID_20_);}
	.st20{fill:#FFFFFF;}
	.st21{fill:#FEC107;}
	.st22{fill:#141414;}
	.st23{fill:#2196F3;}
	.st24{fill:#3F51B5;}
	.st25{fill:#9C28B1;}
	.st26{fill:#673BB7;}
	.st27{fill:#4CB050;}
	.st28{fill:#EA1E63;}
	.st29{fill:#F44236;}
	.st30{fill:#00BCD5;}
	.st31{fill:#009788;}
	.st32{fill:#1E1E1E;}
</style>
<g>
	<path class="st32" d="M261.5,162c-5.8,4.2-8.7,0.7-12.8-1.8c-36.8-22.3-81.5-11.3-102.2,26c-18.1,32.5-14.5,65,5,95.6
		c24,37.4,58.8,62.2,98.8,80.2c5.2,2.4,9.4,1.3,14-0.6c32.3-13.7,60.4-33.4,83.2-60.1c17.6-20.6,29.7-43.7,29.7-59.4
		C377.1,159.5,308.4,128.5,261.5,162z M331.9,277.4c-18,23.6-41.1,41-67.4,54.4c-4.6,2.3-8.6,3.5-13.8,0.7
		c-29.8-15.6-56.4-34.9-75.3-63.4c-12.2-18.3-17.4-38.2-10-60c11.1-32.8,46-43.7,73.6-22.8c1.8,1.4,3.8,2.6,5.2,4.3
		c8.5,10.6,15.7,8.4,24.8-0.3c15.5-14.9,34.1-19.9,54.3-10c20,9.9,26.4,28,27.2,46.6C350.2,247.7,342.7,263.3,331.9,277.4z"/>
</g>
</svg>
