<?xml version="1.0" encoding="utf-8"?>
<!-- Generator: Adobe Illustrator 23.0.3, SVG Export Plug-In . SVG Version: 6.00 Build 0)  -->
<svg version="1.1" id="Layer_1" xmlns="http://www.w3.org/2000/svg" xmlns:xlink="http://www.w3.org/1999/xlink" x="0px" y="0px"
	 viewBox="0 0 512 512" style="enable-background:new 0 0 512 512;" xml:space="preserve">
<style type="text/css">
	.st0{fill:url(#SVGID_1_);}
	.st1{fill:url(#SVGID_2_);}
	.st2{fill:url(#SVGID_3_);}
	.st3{fill:url(#SVGID_4_);}
	.st4{fill:url(#SVGID_5_);}
	.st5{fill:url(#SVGID_6_);}
	.st6{fill:url(#SVGID_7_);}
	.st7{fill:url(#SVGID_8_);}
	.st8{fill:url(#SVGID_9_);}
	.st9{fill:url(#SVGID_10_);}
	.st10{fill:url(#SVGID_11_);}
	.st11{fill:url(#SVGID_12_);}
	.st12{fill:url(#SVGID_13_);}
	.st13{fill:url(#SVGID_14_);}
	.st14{fill:url(#SVGID_15_);}
	.st15{fill:url(#SVGID_16_);}
	.st16{fill:url(#SVGID_17_);}
	.st17{fill:url(#SVGID_18_);}
	.st18{fill:url(#SVGID_19_);}
	.st19{fill:url(#SVGID_20_);}
	.st20{fill:#FFFFFF;}
	.st21{fill:#FEC107;}
	.st22{fill:#141414;}
	.st23{fill:#2196F3;}
	.st24{fill:#3F51B5;}
	.st25{fill:#9C28B1;}
	.st26{fill:#673BB7;}
	.st27{fill:#4CB050;}
	.st28{fill:#EA1E63;}
	.st29{fill:#F44236;}
	.st30{fill:#00BCD5;}
	.st31{fill:#009788;}
	.st32{fill:#1E1E1E;}
</style>
<g>
	<path class="st32" d="M256.5,363.7c-34.1,0-68.2,0.1-102.2,0c-15.6,0-19.2-3.5-19.3-18.8c-0.1-32.3,0-64.6-0.1-96.9
		c0-7,0.1-14.4,7.6-17.1c8.9-3.2,18.7-4.2,27.1,1.2c8.4,5.3,7.9,16.1-1.6,22c-5.1,3.2-6.1,6.5-6,11.7c0.2,20.6,0.4,41.3-0.1,61.9
		c-0.2,7.7,2.3,9.7,9.8,9.7c56.5-0.3,113-0.3,169.5,0c8,0,9.6-2.8,9.5-10.1c-0.4-20.2-0.2-40.4-0.1-60.5c0-5.5,0.3-10.1-6.6-12.6
		c-6.1-2.2-8.1-8.3-6.6-14.6c1.5-6.3,6.1-9.4,12.6-10.4c20.5-3,27.1,2.6,27.1,23.3c0,30.5,0.1,61,0,91.5
		c-0.1,16.2-3.6,19.8-19.6,19.8C323.8,363.8,290.1,363.7,256.5,363.7z"/>
	<path class="st32" d="M269.6,193.6c0,30.8-0.1,57.1,0,83.5c0.1,9.8-1.7,19-13.6,19c-11.9,0-13.8-9-13.7-18.9
		c0.1-26.3,0-52.7,0-82.5c-6.7,6.6-11.5,11.3-16.3,16c-6,5.8-12.8,7.2-19.1,1.4c-6.8-6.2-6.2-13.7,0-20.1
		c12.8-13.2,25.8-26.2,38.9-39c6.4-6.3,13.6-6.5,20.2,0c13.1,12.9,26.1,25.9,38.9,39c6.4,6.5,7,13.6,0.1,20
		c-6.4,6-13.2,4.5-19.1-1.2C281.3,206.3,276.9,201.3,269.6,193.6z"/>
</g>
</svg>
