<?xml version="1.0" encoding="utf-8"?>
<!-- Generator: Adobe Illustrator 23.0.3, SVG Export Plug-In . SVG Version: 6.00 Build 0)  -->
<svg version="1.1" id="Layer_1" xmlns="http://www.w3.org/2000/svg" xmlns:xlink="http://www.w3.org/1999/xlink" x="0px" y="0px"
	 viewBox="0 0 512 512" style="enable-background:new 0 0 512 512;" xml:space="preserve">
<style type="text/css">
	.st0{fill:url(#SVGID_1_);}
	.st1{fill:url(#SVGID_2_);}
	.st2{fill:url(#SVGID_3_);}
	.st3{fill:url(#SVGID_4_);}
	.st4{fill:url(#SVGID_5_);}
	.st5{fill:url(#SVGID_6_);}
	.st6{fill:url(#SVGID_7_);}
	.st7{fill:url(#SVGID_8_);}
	.st8{fill:url(#SVGID_9_);}
	.st9{fill:url(#SVGID_10_);}
	.st10{fill:url(#SVGID_11_);}
	.st11{fill:url(#SVGID_12_);}
	.st12{fill:url(#SVGID_13_);}
	.st13{fill:url(#SVGID_14_);}
	.st14{fill:url(#SVGID_15_);}
	.st15{fill:url(#SVGID_16_);}
	.st16{fill:url(#SVGID_17_);}
	.st17{fill:url(#SVGID_18_);}
	.st18{fill:url(#SVGID_19_);}
	.st19{fill:url(#SVGID_20_);}
	.st20{fill:#FFFFFF;}
	.st21{fill:#FEC107;}
	.st22{fill:#141414;}
	.st23{fill:#2196F3;}
	.st24{fill:#3F51B5;}
	.st25{fill:#9C28B1;}
	.st26{fill:#673BB7;}
	.st27{fill:#4CB050;}
	.st28{fill:#EA1E63;}
	.st29{fill:#F44236;}
	.st30{fill:#00BCD5;}
	.st31{fill:#009788;}
	.st32{fill:#1E1E1E;}
</style>
<g>
	<path class="st32" d="M372.1,244.5c9.3-12.4,5.2-23.7-9.9-26.7c-17.5-3.5-35.2-6.6-52.9-9.2c-6.6-1-10.1-3.9-12.8-9.7
		c-8.3-17.8-17.2-35.4-25.8-53.1c-2.9-6-6.9-10.6-14.1-10.8c-7.8-0.2-12.1,4.6-15.2,11.1c-6.2,12.9-13.8,25.3-18.6,38.7
		c-6.1,17-16,26.1-34.8,26.5c-11.9,0.3-23.8,3.7-35.7,6c-18,3.6-22.2,14.1-11.2,28.5c11.4,15,23,29.8,34.9,44.4
		c4.2,5.2,6,9.9,4.6,17c-3.5,17.1-5.7,34.4-8.6,52.6c-0.9,13.3,9.6,21.1,22.5,15c17.8-8.5,35.3-17.5,52.6-26.9
		c6.7-3.7,12-3.5,18.6,0.1c16.5,9,33.4,17.3,50.1,25.9c6.3,3.3,12.6,5.1,18.8,0.1c5.9-4.7,6.9-10.8,5.5-18.1
		c-3-16.3-5.1-32.8-8.3-49c-1.3-6.4,0-11,4-15.9C348,275.7,360.2,260.2,372.1,244.5z M309,281.1c-5.5,6.4-7.2,12.6-5.5,20.7
		c2.5,12.1,4,24.4,6.3,38.6c-15.7-8-29.9-14.6-43.4-22.3c-7.5-4.3-13.6-3.9-20.9,0.2c-13.2,7.4-26.9,13.9-41.6,21.4
		c-0.9-13.6,2.8-25.4,4.8-37.4c1.3-7.9,0.4-14.4-5.2-20.9c-10.7-12.4-20.3-25.7-31.6-40.1c18.2-3.2,34.3-6.4,50.5-8.8
		c5.7-0.8,8.6-3.3,10.9-8.2c7.1-14.9,14.5-29.7,22.9-46.6c7.8,15.8,15,29.8,21.6,44c3.1,6.6,6.8,10.4,14.6,11.4
		c15.4,1.9,30.6,5.1,48,8.1C329.2,255.4,319.6,268.7,309,281.1z"/>
</g>
</svg>
